<?xml version="1.0" encoding="UTF-8" standalone="no"?>
<!-- Created with Inkscape (http://www.inkscape.org/) -->

<svg
   xmlns:dc="http://purl.org/dc/elements/1.1/"
   xmlns:cc="http://creativecommons.org/ns#"
   xmlns:rdf="http://www.w3.org/1999/02/22-rdf-syntax-ns#"
   xmlns:svg="http://www.w3.org/2000/svg"
   xmlns="http://www.w3.org/2000/svg"
   xmlns:sodipodi="http://sodipodi.sourceforge.net/DTD/sodipodi-0.dtd"
   xmlns:inkscape="http://www.inkscape.org/namespaces/inkscape"
   width="1052.3622"
   height="744.09448"
   id="svg3966"
   version="1.1"
   inkscape:version="0.48.4 r9939"
   sodipodi:docname="manatee.svg"
   inkscape:export-filename="/home/max/manatee.png"
   inkscape:export-xdpi="83.302307"
   inkscape:export-ydpi="83.302307">
  <defs
     id="defs3968" />
  <sodipodi:namedview
     id="base"
     pagecolor="#ffffff"
     bordercolor="#666666"
     borderopacity="1.0"
     inkscape:pageopacity="0.0"
     inkscape:pageshadow="2"
     inkscape:zoom="1"
     inkscape:cx="411.99896"
     inkscape:cy="361.36383"
     inkscape:document-units="px"
     inkscape:current-layer="layer1"
     showgrid="false"
     inkscape:window-width="1680"
     inkscape:window-height="1030"
     inkscape:window-x="1364"
     inkscape:window-y="-3"
     inkscape:window-maximized="1" />
  <metadata
     id="metadata3971">
    <rdf:RDF>
      <cc:Work
         rdf:about="">
        <dc:format>image/svg+xml</dc:format>
        <dc:type
           rdf:resource="http://purl.org/dc/dcmitype/StillImage" />
      </cc:Work>
    </rdf:RDF>
  </metadata>
  <g
     inkscape:label="Ebene 1"
     inkscape:groupmode="layer"
     id="layer1"
     transform="translate(0,-308.2677)">
    <g
       id="g4682"
       transform="translate(-44,14)">
      <g
         transform="matrix(-0.28124278,0.43601579,0.43601579,0.28124278,352.37914,81.10851)"
         id="g4057">
        <path
           inkscape:connector-curvature="0"
           id="path4059"
           d="m 176.14285,1355.2065 c -9.39621,-0.995 -19.04886,-3.5546 -23.96407,-6.3546 -13.6544,-7.7782 -20.85117,-12.1175 -30.16236,-18.1865 -4.59552,-2.9954 -8.52757,-5.4461 -8.73789,-5.4461 -1.90379,0 -28.22352,-17.8728 -30.55895,-20.7515 -0.8672,-1.0689 -8.77673,-8.631 -17.57673,-16.8047 -25.0736,-23.2889 -32.92035,-31.7109 -41.49924,-44.5411 -2.35461,-3.5215 -5.31198,-7.5277 -6.57192,-8.9027 -3.35712,-3.6637 -14.70493,-38.7244 -18.12507,-56 -1.79003,-9.0417 -1.988,-25.2258 -0.4113,-33.6237 0.63235,-3.368 2.94405,-11.5677 5.1371,-18.2215 3.93517,-11.9395 4.83771,-14.399 7.7157,-21.0266 1.67058,-3.8471 6.05248,-19.4195 7.35217,-26.1282 0.90641,-4.6786 7.48093,-18.2188 11.39796,-23.474 1.24052,-1.6643 5.885,-9.1267 10.32107,-16.5831 4.43607,-7.4564 10.69419,-16.6955 13.90694,-20.5314 3.21275,-3.8359 7.1698,-8.7602 8.79343,-10.9429 5.01415,-6.7407 15.63669,-17.88356 23.23154,-24.36942 3.9866,-3.40449 13.50886,-11.90705 21.16056,-18.89457 7.6517,-6.98752 16.45261,-14.72958 19.55758,-17.20458 10.0515,-8.01216 21.86049,-18.48102 22.28569,-19.75664 0.30491,-0.91471 -1.49655,-1.24336 -6.81545,-1.24336 -8.70462,0 -22.33897,-4.02349 -34.43676,-10.16228 -10.9298,-5.54611 -12.73273,-6.97105 -17.31623,-13.68587 -5.29532,-7.75765 -7.30176,-11.90361 -11.049,-22.83078 -2.94922,-8.60014 -3.08539,-9.60904 -2.15949,-16 1.96913,-13.59182 3.91548,-23.12423 5.49931,-26.93343 1.82499,-4.38919 8.54367,-15.87318 12.80531,-21.88764 3.51193,-4.95638 20.15339,-19.53336 24.79241,-21.71674 24.65473,-11.60393 35.90981,-13.609 53.94108,-9.60948 1.1826,0.26231 1.59576,-1.56469 2.10888,-9.32544 0.35098,-5.30842 1.00755,-10.24938 1.45905,-10.97992 0.4515,-0.73054 1.58428,-6.7373 2.51729,-13.34834 0.93301,-6.61104 2.1505,-13.82008 2.70552,-16.02008 0.55502,-2.2 1.77541,-8.275 2.71198,-13.5 3.48419,-19.43777 5.60173,-29.63274 7.13437,-34.34864 0.86668,-2.66676 2.16581,-7.16676 2.88696,-10 2.13376,-8.38314 9.07237,-30.39729 12.97043,-41.15136 7.91864,-21.84616 25.08373,-60.22403 34.66306,-77.5 1.37236,-2.475 4.20825,-7.63478 6.30198,-11.46618 2.09373,-3.83141 5.48918,-9.45641 7.54543,-12.5 2.05626,-3.0436 4.52376,-7.10882 5.48333,-9.03382 2.34186,-4.698 14.58938,-21.91433 21.45407,-30.15794 3.04934,-3.66187 8.59379,-10.86187 12.32099,-16 8.87801,-12.23877 13.05214,-17.2953 24.22168,-29.34206 5.0995,-5.5 13.26101,-14.45625 18.1367,-19.90278 19.57796,-21.87011 37.11139,-38.41352 57.33461,-54.09722 4.25516,-3.3 10.00145,-7.8 12.76952,-10 19.45262,-15.46046 76.48831,-50.13837 110.24198,-67.02753 18.87429,-9.44403 28.24947,-13.49789 41.4255,-17.91253 16.57562,-5.55367 43.63911,-15.09553 50.59328,-17.83783 31.38215,-12.37524 59.38311,-21.10743 76.5,-23.85678 3.3,-0.53006 8.475,-1.35163 11.5,-1.82572 3.025,-0.47409 9.1,-1.56002 13.5,-2.41318 4.4,-0.85316 14.1143,-2.65607 21.58732,-4.00647 7.47303,-1.35039 15.38107,-2.93827 17.57343,-3.52861 14.02888,-3.77759 57.55234,-6.24925 113.33925,-6.43646 72.1229,-0.24202 102.9532,2.42366 165.80885,14.33635 11.1075,2.10515 51.9395,11.75822 64.1912,15.17539 13.8057,3.85061 16.4679,4.60467 22.5,6.37295 3.3,0.96738 11.4,3.99015 18,6.71727 6.6,2.72712 14.7,5.99075 18,7.25251 3.3,1.26175 9.5437,3.91332 13.8748,5.89237 4.3312,1.97905 8.4262,3.59827 9.1,3.59827 0.6738,0 3.0657,1.33327 5.3152,2.96282 2.2495,1.62956 10.6576,6.24206 18.6845,10.25 29.7087,14.83388 42.7025,22.16185 48.5255,27.3666 1.375,1.229 4.2758,2.96533 6.4462,3.8585 2.1704,0.89318 5.5437,2.84754 7.4962,4.34302 1.9525,1.49548 5.1267,3.79773 7.0538,5.1161 4.4477,3.04279 24.4309,12.10296 26.6944,12.10296 0.9384,0 5.5544,1.13239 10.2578,2.51642 4.7034,1.38404 11.0266,3.24214 14.0516,4.12912 3.025,0.88698 6.6944,2.22959 8.1543,2.98357 1.4599,0.75399 3.7272,1.37089 5.0386,1.37089 1.3113,0 4.1495,0.9 6.3071,2 2.1576,1.1 4.5109,2 5.2296,2 0.7187,0 5.7129,2.21112 11.0982,4.91359 5.3853,2.70248 12.4647,5.81372 15.7318,6.91387 7.2569,2.44359 15.1148,6.26313 22.1702,10.77641 2.92,1.86787 5.5982,3.39613 5.9517,3.39613 0.8497,0 16.3951,8.98562 18.3185,10.5885 0.825,0.68751 5.1,3.14829 9.5,5.46838 16.6324,8.77018 28.4275,17.92739 50.6425,39.31676 23.725,22.84332 41.7117,43.55505 45.3162,52.18166 1.6919,4.04945 8.0147,14.39563 18.1616,29.71848 3.3662,5.08326 8.6771,14.18867 11.802,20.23425 3.125,6.04558 7.3579,13.91697 9.4066,17.49197 2.0486,3.575 5.2434,10.325 7.0995,15 1.8561,4.675 4.8367,11.65 6.6235,15.5 6.5,14.00555 7.5178,17.03785 10.0379,29.9058 1.4104,7.20181 4.8624,22.3192 7.671,33.5942 l 5.1066,20.5 0.421,34 c 0.2551,20.60177 0,37.34956 -0.6366,42.5 -0.5816,4.675 -1.5774,13.9 -2.2129,20.5 -0.6354,6.6 -1.5616,14.475 -2.0581,17.5 -0.4966,3.025 -1.5684,9.86717 -2.3818,15.20483 -0.8135,5.33765 -2.1418,11.41265 -2.9519,13.5 -1.9432,5.00721 -5.1924,17.25464 -8.1037,30.54551 -2.5652,11.71091 -3.8539,14.26974 -16.3502,32.46499 -9.4254,13.72382 -14.3381,19.53791 -20.0396,23.71673 -2.5045,1.83559 -9.1954,7.62546 -14.8687,12.86639 -10.8867,10.05701 -16.2794,13.31644 -27.6849,16.73316 -12.5903,3.77165 -21.9451,7.13465 -25,8.98734 -4.3208,2.62041 -17.8105,6.53517 -37.5,10.88262 -5.225,1.15368 -10.625,2.51126 -12,3.01684 -5.3929,1.98293 -20.0111,2.88938 -55,3.41045 -9.7372,0.14501 -34.2359,-3.05184 -39,-5.08914 -2.475,-1.05838 -5.85,-2.24785 -7.5,-2.64325 -5.1616,-1.23691 -27.1237,-12.59327 -29.8026,-15.41059 -4.5867,-4.82357 -7.8748,-12.86004 -8.8267,-21.57298 -0.4875,-4.46209 -1.6213,-11.42163 -2.5196,-15.46564 -4.0022,-18.01783 1.2611,-52.49925 10.541,-69.0572 3.1733,-5.66229 5.0986,-10.94448 10.0558,-27.59006 2.1294,-7.15 5.2091,-16.6 6.8438,-21 4.5505,-12.24825 5.0642,-14.28005 6.1946,-24.5 0.5779,-5.225 1.6845,-13.1 2.459,-17.5 2.7475,-15.60755 3.09,-20.27612 2.3893,-32.56728 -0.713,-12.50769 -1.4607,-17.13662 -4.9962,-30.93272 -3.9189,-15.29158 -10.934,-32.00277 -15.7421,-37.5 -0.9621,-1.1 -3.134,-4.14924 -4.8265,-6.77609 -3.5628,-5.52976 -15.3065,-15.23128 -23.2698,-19.22326 -3.025,-1.51643 -6.6945,-3.59943 -8.1544,-4.6289 -1.4599,-1.02946 -3.2599,-1.85373 -4,-1.8317 -0.7401,0.022 -3.1026,3.95953 -5.2501,8.75 -19.3534,43.17195 -30.4087,60.33751 -52.9357,82.1929 -5.9622,5.78438 -13.6122,13.43863 -17,17.00946 -12.9447,13.64372 -16.58,16.78933 -30.2579,26.18185 -16.5366,11.35566 -26.4328,17.2917 -35.4019,21.23519 -3.575,1.57184 -6.9647,3.22169 -7.5327,3.66633 -0.568,0.44464 -5.068,2.80729 -10,5.25032 -7.175,3.5541 -11.7654,4.98795 -22.9673,7.17406 -7.7,1.50269 -18.5,4.2 -24,5.99401 -5.5,1.79401 -13.0247,4.23969 -16.7215,5.43485 -3.6969,1.19516 -11.3412,2.71256 -16.9875,3.372 -8.9677,1.04736 -10.314,1.45189 -10.6465,3.19898 -0.7577,3.98038 -16.29615,28.30306 -24.37505,38.15472 -8.4273,10.27654 -11.4227,14.25997 -20.2695,26.95577 -5.9033,8.47172 -14.2177,17.29008 -32.5552,34.5285 -18.6457,17.5282 -25.0939,23.25305 -30.8449,27.38468 -2.7296,1.96107 -5.1063,3.94882 -5.2814,4.41724 -0.1752,0.46841 -2.3803,2.13583 -4.9002,3.70537 -2.5199,1.56955 -9.8367,6.34122 -16.2595,10.60372 -6.4229,4.2625 -11.8942,7.75 -12.1586,7.75 -0.2644,0 -3.5226,2.09091 -7.2405,4.64646 -6.9695,4.79065 -15.751,9.32659 -18.0894,9.34377 -0.7314,0.005 -5.6814,2.08571 -11,4.62296 -19.63457,9.36664 -21.79182,9.90731 -55.1703,13.82711 -7.425,0.87195 -15.38594,1.57959 -17.69098,1.57253 -2.30504,-0.007 -4.45805,0.41929 -4.78446,0.94743 -0.63247,1.02336 3.28711,9.29989 8.59712,18.15351 1.77671,2.9625 5.33889,9.4362 7.91595,14.3862 8.77176,16.8487 15.59755,27.028 27.96237,41.7001 4.125,4.8947 8.85,10.6295 10.5,12.7439 1.65,2.1143 5.49389,5.4614 8.54197,7.4379 3.04808,1.9765 7.09808,5.2038 9.00003,7.1719 1.9019,1.968 5.033,4.5468 6.958,5.7308 1.925,1.1839 6.0312,4.0686 9.1248,6.4103 3.0937,2.3418 8.7749,6.1809 12.6251,8.5315 22.9043,13.9832 34.3855,20.7454 39.2501,23.1175 28.1793,13.7415 58.5625,40.5269 65.3846,57.6423 2.9952,7.5142 4.6505,20.49 3.9566,31.0138 -0.542,8.2187 -1.1241,10.5116 -4.3159,17 -2.0292,4.125 -4.738,10.2 -6.0196,13.5 -2.3123,5.9537 -9.2837,16.826 -12.5013,19.4964 -0.922,0.7651 -2.55,3.2165 -3.6177,5.4474 -1.5945,3.3313 -4.1094,5.467 -14.0735,11.951 -10.0522,6.5413 -13.8274,8.3861 -22.0205,10.7608 -19.2025,5.5657 -32.9501,6.2288 -49.2561,2.3759 -5.7459,-1.3576 -13.0547,-3.5514 -16.2418,-4.8749 -3.1871,-1.3236 -10.5198,-3.8533 -16.2948,-5.6215 -5.775,-1.7683 -12.80478,-4.5246 -15.62173,-6.1251 -7.85068,-4.4605 -8.0667,-4.3098 -8.55816,5.9695 l -0.42454,8.8794 -6.94034,7.8706 c -20.08552,22.7775 -24.53822,26.7495 -36.50548,32.564 -8.04378,3.9083 -22.57731,8.1168 -25.49834,7.3837 -1.36623,-0.3429 -5.17956,0.075 -8.47406,0.9287 -8.55893,2.2178 -16.41048,2.8356 -20.20176,1.5895 -1.80158,-0.5921 -8.45059,-1.9944 -14.77559,-3.1162 -20.06565,-3.5588 -33.92806,-9.4773 -46.53728,-19.869 -2.7295,-2.2494 -7.50259,-5.8789 -10.60688,-8.0654 -10.41298,-7.3346 -31.87502,-31.6276 -46.06088,-52.1367 -8.37701,-12.111 -16.2303,-28.8361 -20.38232,-43.4081 -3.38241,-11.871 -6.28945,-21.0635 -7.75223,-24.5136 -1.91657,-4.5204 -8.3428,-41.8687 -10.71538,-62.2762 -1.00965,-8.6844 -2.73951,-20.3844 -3.84413,-26 -1.10462,-5.6156 -2.27541,-12.9102 -2.60175,-16.2102 -1.40817,-14.2393 -2.78108,-24.4023 -4.05266,-30 -0.74964,-3.3 -1.81928,-11.649 -2.37699,-18.5535 -0.5577,-6.9044 -1.45714,-14.7794 -1.99876,-17.5 -0.54162,-2.7205 -1.74033,-9.6715 -2.66381,-15.4465 -2.83464,-17.72642 -10.27485,-37.74075 -16.42057,-44.17166 -1.6425,-1.71872 -2.98636,-3.93164 -2.98636,-4.91761 0,-0.98596 -0.38511,-2.03068 -0.85579,-2.32158 -1.85624,-1.14721 -43.01589,2.35829 -52.64421,4.48363 -12.34505,2.72503 -31.54174,7.37003 -35.02981,8.47612 -2.2164,0.70284 -5.8164,1.60201 -8,1.99816 -2.18361,0.39615 -5.15437,1.31911 -6.6017,2.05102 -1.44732,0.73192 -7.07232,2.9407 -12.5,4.9084 -5.42767,1.96771 -11.32723,4.30256 -13.11013,5.18857 -8.08283,4.01672 -40.39804,31.64075 -45.67121,39.04105 -7.68504,10.7852 -16.45178,27.2285 -19.60068,36.7639 -1.75373,5.3106 -2.33272,9.4135 -2.39905,17 -0.0784,8.9674 0.21109,10.6713 2.80328,16.5 1.58988,3.575 4.91376,9.856 7.38641,13.9577 2.47264,4.1018 6.15304,10.8518 8.17866,15 3.25746,6.671 8.09422,14.8613 13.72774,23.2459 0.99907,1.4869 5.19149,7.1119 9.31649,12.5 4.125,5.388 7.8373,10.6226 8.24955,11.6323 0.41225,1.0097 2.17837,3.9347 3.92469,6.5 1.74633,2.5653 4.02565,5.9228 5.06515,7.4611 2.52081,3.7306 7.75883,14.8701 7.75982,16.5027 4.3e-4,0.7148 0.73833,2.7259 1.63977,4.4691 1.07279,2.0745 1.94463,7.5851 2.52376,15.9517 0.8372,12.0949 0.74953,13.2529 -1.63005,21.5309 -1.38316,4.8117 -4.16614,12.7986 -6.18439,17.7486 -3.03762,7.4501 -4.82698,10.2055 -10.39048,16 -3.6965,3.85 -8.92434,9.7785 -11.61742,13.1745 -2.69307,3.3959 -7.80888,8.4606 -11.36845,11.2549 -3.55957,2.7942 -8.06908,6.3778 -10.02113,7.9634 -8.87998,7.2131 -21.21559,13.5321 -35.45082,18.1601 -5.5,1.7881 -14.1035,4.9827 -19.11889,7.0991 -5.01539,2.1164 -9.66366,3.848 -10.32949,3.848 -0.66583,0 -5.11541,1.9403 -9.88796,4.3118 -8.86582,4.4054 -11.34378,5.0492 -33.22246,8.6317 -12.9289,2.1171 -28.65307,2.5038 -42.4412,1.0437 z m 37.5,-7.4887 c 0.825,-0.2459 6.15936,-1.1411 11.85414,-1.9894 8.14324,-1.213 12.75282,-2.6065 21.58764,-6.5257 6.17842,-2.7409 11.77151,-4.9834 12.4291,-4.9834 0.65758,0 3.31815,-1.0664 5.91236,-2.3698 2.59422,-1.3034 9.21676,-3.8148 14.71676,-5.581 29.06675,-9.3339 53.65946,-24.6765 63.97405,-39.9113 1.62432,-2.3991 4.54465,-5.5308 6.48963,-6.9592 7.67159,-5.634 13.71874,-12.714 15.94766,-18.6713 2.6375,-7.0493 5.06475,-20.114 5.01763,-27.0074 -0.10378,-15.1809 -7.8866,-37.0757 -18.12872,-51 -2.42733,-3.3 -7.49607,-10.5 -11.26386,-16 -3.76778,-5.5 -8.35269,-11.766 -10.18869,-13.9244 -1.83599,-2.1584 -4.32102,-5.9834 -5.52229,-8.5 -1.20127,-2.5166 -3.2201,-5.9571 -4.4863,-7.6457 -1.26619,-1.6886 -4.15183,-7.0886 -6.41251,-12 -2.26069,-4.9114 -5.21882,-10.3949 -6.57363,-12.1855 -9.52217,-12.5849 -12.37497,-30.3037 -7.76088,-48.203 1.32825,-5.1526 10.19154,-23.7903 12.85973,-27.0414 0.67708,-0.825 2.84777,-4.21 4.82376,-7.5224 4.0474,-6.7846 34.21259,-36.05775 39.97362,-38.79153 1.84599,-0.87598 4.2326,-2.57718 5.30357,-3.78043 4.75696,-5.3445 36.60514,-17.5552 57.44723,-22.02546 4.675,-1.0027 11.2,-2.4775 14.5,-3.27733 12.80212,-3.10286 22.63785,-4.63544 39,-6.07691 16.34676,-1.4401 24.68086,-2.37926 40.19155,-4.52912 9.49096,-1.3155 17.77484,-1.27443 35.30845,0.17505 10.12421,0.83696 15.25445,1.69454 17,2.84176 1.375,0.90368 4.975,3.28883 8,5.30034 6.53457,4.34522 25,22.10704 25,24.04739 0,0.7464 1.72549,3.33295 3.83443,5.74788 2.10893,2.41493 5.10664,6.64079 6.66157,9.39079 1.55493,2.74997 4.03544,6.34997 5.51225,7.99997 1.4768,1.65 4.39076,6.1084 6.47545,9.9075 3.66855,6.6856 6.66124,11.5554 10.10348,16.4409 2.28587,3.2443 11.90188,22.965 15.92129,32.6516 7.54585,18.1853 9.67646,23.1955 11.48193,27 1.04401,2.2 3.45126,7.825 5.34943,12.5 4.87537,12.0076 12.49018,27.7895 15.68133,32.5 1.49039,2.2 3.9491,6.475 5.46381,9.5 1.5147,3.025 4.67528,8.2107 7.0235,11.5236 2.34822,3.313 7.38342,12.088 11.18933,19.5 14.94123,29.098 37.92711,57.8578 57.16995,71.5307 4.60226,3.2702 11.35226,8.1079 15,10.7505 13.10527,9.4944 35.62754,19.7604 65.13225,29.6885 17.3463,5.8369 31.7357,7.2821 44,4.419 3.575,-0.8345 8.4987,-1.9462 10.9416,-2.4704 10.831,-2.3241 31.8008,-15.3891 35.5584,-22.1543 1.1,-1.9804 3.9209,-6.2303 6.2688,-9.4442 5.4121,-7.4086 8.0718,-13.0969 12.5509,-26.8434 8.2805,-25.413 4.9317,-44.2905 -10.4892,-59.1293 -13.4776,-12.9689 -23.1767,-20.7941 -33.3305,-26.8911 -4.4,-2.6421 -9.0654,-5.6247 -10.3675,-6.628 -1.3022,-1.0034 -2.762,-1.5805 -3.2442,-1.2826 -0.4821,0.298 -2.3417,-0.5377 -4.1324,-1.8571 -1.7908,-1.3194 -6.6309,-4.0786 -10.7559,-6.1315 -4.125,-2.053 -8.4,-4.5322 -9.5,-5.5094 -1.1,-0.9772 -6.95,-4.5944 -13,-8.0382 -6.05,-3.4439 -13.7,-8.3952 -17,-11.0029 -3.3,-2.6078 -7.1131,-5.326 -8.4736,-6.0405 -1.3605,-0.7145 -4.7355,-3.3942 -7.49998,-5.955 -2.76453,-2.5608 -7.36353,-6.3358 -10.21999,-8.3889 -11.05589,-7.9466 -33.80926,-34.5358 -42.45792,-49.6155 -2.0598,-3.5915 -6.4541,-11.7821 -9.76511,-18.2014 -3.311,-6.4192 -6.48183,-11.9568 -7.04629,-12.3056 -1.10694,-0.6842 -10.03711,-18.67279 -10.03711,-20.21845 0,-0.51429 -2.00949,-4.77539 -4.46552,-9.46909 -2.45604,-4.6937 -5.75998,-12.31433 -7.3421,-16.93472 -1.58211,-4.62039 -4.79336,-14.02571 -7.13612,-20.90071 -2.34276,-6.875 -4.68459,-13.29672 -5.20406,-14.2705 -1.37792,-2.58293 -3.98672,-13.34495 -8.05513,-33.2295 -0.56265,-2.75 -2.26227,-9.275 -3.77694,-14.5 -2.35075,-8.10918 -5.78303,-26.11354 -5.90972,-31 -0.0627,-2.4189 -2.8605,-17.34638 -3.59329,-19.17186 -0.92076,-2.29374 1.14784,-5.82814 3.41107,-5.82814 2.53635,0 3.10346,1.77676 4.62817,14.5 1.78598,14.90355 7.93719,41.89025 10.20699,44.78032 0.52685,0.67082 1.02069,3.2629 1.09743,5.76016 0.0767,2.49727 0.86624,7.22227 1.75445,10.5 0.88821,3.27774 2.00097,7.75952 2.47282,9.95952 0.47184,2.2 2.93,9.85 5.46259,17 2.53258,7.15 6.3779,18.08133 8.54515,24.29184 2.16725,6.21052 5.96958,15.54802 8.44962,20.75 l 4.50916,9.45816 8.22271,-0.0327 c 4.5225,-0.018 11.37272,-0.46774 15.22272,-0.99943 3.85,-0.53169 12.94226,-1.39431 20.20501,-1.91693 14.10551,-1.01501 13.47142,-0.81051 35.79499,-11.54439 2.75,-1.32228 8.15,-3.59502 12,-5.05052 9.3377,-3.53016 20.8955,-10.20987 34.1399,-19.73095 2.123,-1.52621 8.1351,-5.56046 13.3601,-8.96499 14.7133,-9.58695 17.0939,-11.5584 39.334,-32.57357 22.0389,-20.82498 25.3149,-24.33218 41.2743,-44.1865 5.5263,-6.875 12.4044,-15.425 15.2845,-19 2.8802,-3.575 7.2596,-10.1 9.7321,-14.5 2.4726,-4.4 5.84905,-10.21203 7.50345,-12.91563 3.0958,-5.05932 5.4756,-11.19285 6.0465,-15.58437 0.3075,-2.36492 0.6223,-2.48474 5.8251,-2.21766 3.0251,0.15529 9.1,-0.44672 13.5001,-1.3378 4.4,-0.89108 10.025,-2.02353 12.5,-2.51655 2.4749,-0.49302 6.525,-1.76338 9,-2.82303 6.3173,-2.70472 17.6711,-5.97259 23,-6.61999 16.2895,-1.97895 21.2307,-3.65428 43.5,-14.74885 13.5136,-6.73247 32.9458,-18.03036 34.0304,-19.78532 0.29,-0.46922 4.975,-3.80459 10.4111,-7.41195 5.436,-3.60735 12.0606,-8.89042 14.7211,-11.74014 9.6983,-10.38788 14.9703,-15.65198 21.3374,-21.30544 8.2134,-7.29285 22.2734,-23.58659 29.3332,-33.99327 2.9849,-4.4 8.3608,-13.625 11.9465,-20.5 6.8915,-13.21344 17.7203,-37.08055 17.7203,-39.0562 0,-2.23689 4.3664,-8.9253 6.2083,-9.50991 1.207,-0.38308 2.9929,0.41359 5.1262,2.28672 1.8007,1.58104 4.8246,3.49601 6.7198,4.25549 3.6166,1.44937 22.0292,14.35695 27.8357,19.5134 3.1879,2.83093 12.11,15.59435 12.11,17.32373 0,0.43602 1.3124,2.5774 2.9165,4.75861 3.3524,4.55852 9.6216,20.1238 11.6514,28.92816 0.7608,3.3 2.1818,9.15 3.1577,13 2.2016,8.68544 2.4964,44.56576 0.4395,53.5 -0.6965,3.025 -1.911,10.98383 -2.699,17.68629 -1.0123,8.6098 -2.4943,15.21321 -5.0498,22.5 -1.9893,5.67254 -4.217,12.33871 -4.9503,14.81371 -0.7334,2.475 -1.8063,5.85 -2.3843,7.5 -0.5781,1.65 -2.445,7.47553 -4.1487,12.94561 -1.7037,5.47009 -4.1796,12.08085 -5.502,14.69059 -3.747,7.39428 -8.0638,18.81996 -9.394,24.8638 -3.5101,15.94836 -5.0409,35.216 -3.0925,38.92552 0.4548,0.86596 1.134,4.94948 1.5092,9.07448 0.9421,10.35491 3.0232,18.55201 6.2841,24.75158 2.3282,4.42647 3.8255,5.84051 9.5301,9 12.5732,6.96376 15.9091,8.54908 19.5763,9.30331 2.0107,0.41353 6.1307,1.73506 9.1558,2.93672 7.6651,3.04496 25.3882,4.37745 54,4.05997 24.1484,-0.26795 26.1996,-0.47171 39,-3.87382 4.125,-1.09636 11.0999,-2.76403 15.5,-3.70595 4.4,-0.94191 11.375,-2.83901 15.5,-4.21577 4.125,-1.37677 10.875,-3.62314 15,-4.99194 4.125,-1.36879 9.9749,-3.51046 13,-4.75926 3.025,-1.24879 6.8429,-2.58329 8.4843,-2.96554 1.6413,-0.38225 5.3672,-1.78497 8.2796,-3.11715 2.9125,-1.33218 5.6446,-2.42215 6.0715,-2.42215 1.446,0 7.6338,-5.04897 15.1646,-12.37364 4.125,-4.01208 9.9653,-9.21861 12.9784,-11.57007 3.4406,-2.68507 7.9972,-7.93269 12.25,-14.10767 3.7244,-5.40776 6.7716,-10.13351 6.7716,-10.50167 0,-0.36817 1.7395,-2.75684 3.8656,-5.30817 5.8799,-7.05594 8.2094,-12.53781 10.6792,-25.13108 1.2413,-6.32924 2.9513,-13.3077 3.7999,-15.5077 6.0091,-15.57731 10.8327,-44.66148 13.5168,-81.5 0.9331,-12.80637 0.318,-61.89702 -0.8454,-67.47239 -0.4623,-2.21519 -1.5628,-7.5955 -2.4456,-11.95625 -0.8829,-4.36075 -2.7799,-12.23575 -4.2157,-17.5 -1.4358,-5.26425 -4.0701,-16.77136 -5.8541,-25.57136 -2.8111,-13.86612 -4.2009,-18.20056 -10.4206,-32.5 -10.4178,-23.95069 -10.7841,-24.71428 -16.1674,-33.7014 -2.702,-4.51077 -4.9127,-8.53932 -4.9127,-8.95233 0,-0.81537 -13.8698,-24.9581 -17.1465,-29.84627 -6.3723,-9.50637 -13.1701,-20.55701 -14.9492,-24.30182 -2.784,-5.86 -10.1393,-16.23733 -16.3421,-23.05641 -2.8225,-3.10297 -6.3463,-7.12997 -7.8305,-8.94888 -1.4843,-1.81892 -11.1519,-11.26892 -21.4836,-21 -14.1612,-13.33799 -21.734,-19.62194 -30.7665,-25.53015 -15.916,-10.41081 -37.0834,-23.06645 -47.0456,-28.12794 -4.4352,-2.25338 -9.2608,-5.03846 -10.7236,-6.18906 -1.4627,-1.1506 -5.2589,-3.09138 -8.436,-4.31284 -10.1405,-3.89871 -24.6985,-10.19161 -27.128,-11.72645 -2.7072,-1.71035 -19.2922,-6.76701 -51.6287,-15.74131 -14.0533,-3.90017 -32.4227,-13.83544 -55.3002,-29.90961 -2.5957,-1.82381 -9.8945,-6.00745 -16.2195,-9.29698 -6.325,-3.28953 -17.8,-9.28635 -25.5,-13.32627 -27.9866,-14.6836 -33.1589,-17.20097 -42.0957,-20.48839 -5.0027,-1.84022 -11.0777,-4.36115 -13.5,-5.60207 -10.43,-5.34308 -32.0177,-12.72836 -51.4043,-17.58575 -3.3,-0.82682 -11.4,-2.86469 -18,-4.52858 -6.6,-1.66389 -15.15,-3.68046 -19,-4.48125 -3.85,-0.8008 -8.8,-2.07895 -11,-2.84035 -2.2,-0.76139 -6.25,-1.66166 -9,-2.0006 -2.75,-0.33894 -10.625,-1.69798 -17.5,-3.02009 -12.0207,-2.31166 -26.39515,-4.80015 -45.50005,-7.87692 -42.2096,-6.79768 -129.252,-7.77341 -190.55573,-2.13608 -12.96664,1.19238 -34.44258,4.74818 -56.94427,9.42835 -2.475,0.51477 -7.2,1.40967 -10.5,1.98866 -30.2814,5.31287 -38.60239,7.15141 -56.5,12.48381 -10.15355,3.02514 -30.39763,10.17375 -41.5,14.65452 -4.4,1.77578 -16.325,6.15226 -26.5,9.72552 -10.175,3.57325 -20.075,7.09584 -22,7.82799 -1.925,0.73214 -4.05635,1.35092 -4.73634,1.37506 -3.80928,0.13523 -47.60097,20.32014 -59.76366,27.54687 -3.85,2.28756 -12.85,7.45623 -20,11.48594 -7.15,4.02972 -14.575,8.31539 -16.5,9.52372 -1.925,1.20834 -7.775,4.83133 -13,8.0511 -24.69034,15.21479 -50.08527,33.53795 -68.99365,49.78089 -24.30687,20.88042 -59.91055,59.72209 -82.39361,89.88691 -4.8092,6.45235 -9.13802,11.97507 -9.61961,12.27271 -0.48159,0.29763 -3.93298,4.91844 -7.66977,10.26845 -3.73679,5.35002 -8.2591,11.7523 -10.04959,14.2273 -1.79048,2.475 -4.67114,7.2 -6.40146,10.5 -1.73032,3.3 -4.82198,8.475 -6.87036,11.5 -2.04838,3.025 -4.61104,7.3 -5.6948,9.5 -1.08376,2.2 -3.46884,6.7 -5.30018,10 -5.49273,9.89769 -13.60182,26.53736 -17.32012,35.54046 -1.92158,4.65275 -5.15034,12.28454 -7.17501,16.95954 -4.72132,10.90164 -12.65876,32.15695 -16.06816,43.02821 -1.46129,4.65949 -3.24244,10.04679 -3.95812,11.97179 -5.68856,15.3009 -17.075,70.68778 -19.98284,97.20218 -2.2066,20.12038 -2.19358,20.25627 2.22941,23.26177 2.05268,1.39483 4.48578,2.53605 5.40689,2.53605 0.92111,0 3.59363,-2.2919 5.93895,-5.09312 7.9792,-9.53028 31.56686,-27.89182 42.42686,-33.0267 9.92183,-4.69129 34.88968,-8.47133 48.49517,-7.342 4.27088,0.35451 11.15967,1.90879 16,3.61 4.675,1.6431 10.87006,3.62819 13.7668,4.41131 8.3855,2.26697 14.19497,5.71213 24.61599,14.59788 12.82156,10.93264 21.41311,23.36585 27.5319,39.84263 5.99848,16.15278 7.00995,20.02974 8.47262,32.47529 1.24142,10.56296 1.19779,11.35192 -1.16131,21 -3.80647,15.56748 -8.49702,29.68707 -10.79071,32.48237 -1.14736,1.39829 -3.83553,5.20833 -5.97371,8.46675 -5.32523,8.11527 -22.26519,25.17776 -26.93347,27.12829 -2.07427,0.86669 -5.47791,2.65307 -7.56365,3.96974 -2.08574,1.31666 -6.77381,3.08541 -10.41794,3.93054 -3.64413,0.84513 -7.84537,2.13884 -9.3361,2.87492 -6.13941,3.03147 -13.72822,3.91696 -29.29491,3.41826 -14.00258,-0.4486 -16.28625,-0.78875 -24.91551,-3.71123 -12.90326,-4.36996 -30.69627,-16.23698 -46.02127,-30.69381 -4.147,-3.91207 -7.58258,-6.34112 -8.9687,-6.34112 -1.44343,0 -4.51089,2.30913 -8.57899,6.45812 -3.48272,3.55196 -8.57261,7.5934 -11.31086,8.98098 -2.73825,1.38758 -5.26205,2.98143 -5.60843,3.54188 -0.34638,0.56046 -1.61573,1.03493 -2.82077,1.05437 -2.97102,0.0479 -9.45355,4.63178 -27.1177,19.17511 -54.4963,44.86815 -80.33058,71.45619 -94.47931,97.23589 -2.27804,4.1507 -6.5082,11.0358 -9.40034,15.3002 -9.86257,14.5421 -14.40015,24.8795 -17.23014,39.2534 -0.379,1.925 -2.70811,8.675 -5.1758,15 -10.30295,26.4078 -13.55785,43.4095 -11.29527,59 1.21946,8.4029 5.23443,23.026 11.11978,40.5 1.66719,4.95 3.40999,10.4997 3.87288,12.3327 1.01611,4.0238 5.36923,10.7528 17.25152,26.6673 9.32545,12.49 12.39947,15.6551 34.7634,35.7927 7.425,6.6859 15.10069,13.7426 17.05709,15.6818 5.07551,5.0306 15.15352,12.0515 24.44291,17.0283 4.4,2.3573 13.625,7.9502 20.5,12.4286 6.875,4.4785 17.45,10.4782 23.5,13.3328 10.76704,5.0802 11.24312,5.2026 22.47987,5.7762 6.31393,0.3223 11.67933,0.7855 11.92312,1.0293 0.51887,0.5188 18.89173,-0.414 21.09701,-1.0712 z m -120.1848,-95.6987 c -2.13267,-2.3101 -4.13733,-5.2351 -4.4548,-6.5 -0.80055,-3.1896 0.30301,-6.9567 2.25772,-7.7068 2.17772,-0.8356 4.56418,1.2573 3.88253,3.405 -0.29948,0.9435 0.81459,4.2992 2.4757,7.457 4.51908,8.5909 2.31651,10.3614 -4.16115,3.3448 z m -14.98888,-2.5025 c -2.26573,-2.5949 -3.47267,-5.296 -4.22116,-9.4468 -0.36195,-2.0073 -1.32118,-4.1999 -2.13162,-4.8725 -0.81045,-0.6726 -1.47354,-2.5178 -1.47354,-4.1004 0,-2.3216 0.43478,-2.875 2.25,-2.8639 4.54645,0.027 6.75,1.1597 6.75,3.4681 0,1.2367 0.83113,3.3217 1.84696,4.6333 1.67374,2.1612 3.06365,7.0916 3.49142,12.3849 0.21894,2.7093 -4.3538,3.2692 -6.51206,0.7973 z M 387.14285,740.30037 c -6.16246,-3.92648 -8.64818,-6.53133 -7.9554,-8.33666 0.89072,-2.3212 1.41723,-2.24154 8.2992,1.25562 3.24698,1.65 6.66013,3 7.58477,3 2.66238,0 13.57235,-7.87243 13.56363,-9.78726 -0.007,-1.53685 -3.99844,-4.21274 -6.28384,-4.21274 -0.49109,0 -1.91643,0.80511 -3.16741,1.78913 -1.60572,1.26306 -3.48984,1.67323 -6.40773,1.39496 -3.58404,-0.34179 -4.13322,-0.71238 -4.13322,-2.78913 0,-1.81504 0.54481,-2.39656 2.25,-2.40155 1.2375,-0.004 3.6,-0.90066 5.25,-1.99341 5.22507,-3.46042 11.58201,-2.26472 16.61735,3.12562 4.20644,4.50302 3.74871,6.9067 -2.36735,12.43155 -2.8875,2.60838 -6.6,5.57339 -8.25,6.58893 -3.96449,2.44004 -11.11703,2.40902 -15,-0.0651 z m 327.89922,600.83643 c 1.59458,-0.5046 4.92106,-0.9175 7.39219,-0.9175 7.93172,0 24.118,-5.9464 36.51962,-13.4163 5.72974,-3.4513 22.16424,-21.6092 24.65633,-27.242 2.23192,-5.0447 4.63987,-19.3169 3.68077,-21.8163 -0.50987,-1.3287 -2.02134,-2.4629 -12.69328,-9.5254 -3.78923,-2.5076 -6.32858,-4.3195 -18.75784,-13.3841 -20.70623,-15.1009 -43.98471,-44.3159 -58.76115,-73.7465 -2.58731,-5.1531 -6.51804,-12.0415 -8.73495,-15.3074 -9.37041,-13.8042 -28.29693,-49.9981 -31.08268,-59.4406 -0.87275,-2.9582 -2.03606,-5.9199 -2.58514,-6.5815 -1.26191,-1.5205 -8.71604,-18.407 -15.02609,-34.0399 -7.72733,-19.1441 -15.97717,-33.8553 -33.08651,-59 -2.24544,-3.3 -5.50864,-8.25619 -7.25155,-11.01379 -5.65777,-8.95161 -11.39602,-15.86075 -18.46901,-22.23762 -9.60373,-8.65853 -11.37275,-9.96655 -16.34644,-12.08661 -5.71034,-2.43405 -26.17741,-4.43986 -40.85349,-4.00371 -10.93221,0.32489 -11.51533,0.44941 -11.81041,2.52201 -0.19807,1.39118 0.97817,3.60656 3.25,6.1212 1.95823,2.16752 3.56041,4.83822 3.56041,5.93489 0,1.09667 0.8223,3.06713 1.82734,4.3788 1.63324,2.13155 3.613,7.77437 7.67819,21.88486 2.52124,8.75137 5.099,25.31797 6.97134,44.80287 0.80876,8.4166 1.74811,15.7521 2.08744,16.3012 0.88831,1.4373 4.37574,25.566 4.46553,30.8959 0.0417,2.475 0.97066,8.775 2.06437,14 1.09371,5.225 2.85556,17.15 3.91524,26.5 1.05968,9.35 2.59884,19.925 3.42036,23.5 0.82152,3.575 2.21167,11.3964 3.08922,17.3809 0.87756,5.9845 3.20494,16.1095 5.17198,22.5 1.96703,6.3905 4.47502,14.7691 5.57332,18.6191 5.40044,18.931 13.89366,36.8472 26.45575,55.8079 10.8178,16.3279 29.08401,35.9151 45.58597,48.8828 11.20584,8.8058 14.26731,10.6539 24.5,14.7897 6.43167,2.5995 13.49395,5.0184 15.69395,5.3753 8.48494,1.3767 15.22991,2.6645 21,4.0096 6.02415,1.4044 11.50509,1.2591 16.89922,-0.4478 z M 293.32049,935.16264 c 8.65251,-1.16883 15.51083,-3.42231 22.32236,-7.33459 2.475,-1.42155 5.40635,-2.59005 6.51412,-2.59667 1.10776,-0.007 4.46579,-0.90817 7.46228,-2.00343 6.84313,-2.50124 14.39611,-9.72485 25.10334,-24.00862 10.31449,-13.75983 14.92026,-23.23522 14.92026,-30.69527 0,-1.6793 0.73694,-5.02235 1.63765,-7.429 2.5119,-6.71172 2.07152,-20.31233 -1.01595,-31.37573 -5.39105,-19.31795 -9.98126,-30.29893 -17.34757,-41.5 -8.79928,-13.38001 -17.86989,-22 -23.15008,-22 -1.0864,0 -5.69745,-1.8 -10.24676,-4 -4.54932,-2.2 -8.86391,-4 -9.58796,-4 -0.72406,0 -2.09786,-0.42362 -3.0529,-0.94138 -7.4966,-4.06417 -24.73419,-5.61323 -37.23643,-3.34626 -11.40166,2.0674 -24.5245,6.00977 -26.02574,7.81866 -0.67053,0.80794 -2.28905,1.46898 -3.5967,1.46898 -1.30766,0 -2.37756,0.44044 -2.37756,0.97875 0,0.53831 -3.15365,3.12581 -7.00812,5.75 -14.01602,9.54235 -16.16437,11.08387 -18.68464,13.40695 -1.41075,1.30036 -3.22386,3.9393 -4.02914,5.8643 -0.80527,1.925 -2.48929,4.625 -3.74225,6 -3.96454,4.35067 -13.582,22.97037 -14.57836,28.22415 -1.72179,9.07896 -1.19108,30.09174 0.93617,37.06675 1.04152,3.41501 2.84519,9.38342 4.00815,13.26313 4.44196,14.8186 22.3364,36.20834 37.29777,44.58308 3.30426,1.84959 7.4236,4.5344 9.15409,5.96624 3.9463,3.26527 6.39373,4.55257 13.49405,7.09764 13.15114,4.71396 23.9399,5.75375 38.82992,3.74232 z m -96.94551,-73.47936 c -3.83012,-2.60264 -4.09415,-3.37701 -3.73831,-10.96395 0.13647,-2.90953 1.1353,-5.15863 3.66385,-8.25 3.24116,-3.96261 3.81198,-4.25 8.4414,-4.25 9.49014,0 14.73431,4.03325 13.48621,10.37217 -1.32634,6.7363 -3.93745,11.28601 -7.72968,13.46855 -4.97932,2.86573 -9.53036,2.74432 -14.12347,-0.37677 z m 13.61389,-6.71395 c 2.44087,-5.50946 2.5522,-6.4503 1.02184,-8.6352 -1.62843,-2.3249 -4.94823,-2.83385 -5.64095,-0.8648 -0.24186,0.6875 -0.0831,2.21623 0.35283,3.39718 1.00306,2.71742 0.247,3.47293 -2.7282,2.7262 -2.87205,-0.72084 -3.26175,1.96337 -0.69655,4.79788 2.66993,2.95024 6.02935,2.32944 7.69103,-1.42126 z m -55.27224,62.63502 c 5.18442,-0.88825 11.45122,-2.64356 13.92622,-3.9007 6.64817,-3.37685 20.21871,-14.81938 22.38645,-18.87601 l 1.88645,-3.53024 -2.62111,-5.35735 c -1.44161,-2.94654 -4.06804,-10.05161 -5.83651,-15.78904 -2.90661,-9.42984 -3.23881,-11.82423 -3.45911,-24.93168 -0.29945,-17.81712 0.94624,-28.51428 4.30328,-36.95378 l 2.56717,-6.45379 -2.75488,-2.19667 c -7.80043,-6.21983 -24.27853,-11.96768 -31.84945,-11.10963 -4.84572,0.54919 -14.93032,4.28662 -26.12229,9.68112 -13.83101,6.66652 -30.05637,24.56965 -35.72307,39.41698 -3.04837,7.98705 -5.66169,20.48859 -5.88221,28.13922 -0.1659,5.75542 0.3491,8.38312 2.94227,15.0126 3.21873,8.22871 9.44732,18.72182 12.79002,21.54693 3.29623,2.78584 12.34334,7.91521 16.6753,9.45426 16.1628,5.74232 19.64091,6.72927 25.77147,7.31293 0.86559,0.0824 5.81559,-0.57691 11,-1.46515 z m 5.15752,-53.42259 c -2.34778,-1.04297 -4.56236,-2.66158 -4.92128,-3.59693 -0.93066,-2.42523 1.33371,-12.31434 3.323,-14.51249 2.42911,-2.68413 11.19261,-2.56461 14.70802,0.20061 3.46037,2.72193 5.22704,9.1607 3.59476,13.10138 -2.74704,6.63193 -8.72479,8.35228 -16.7045,4.80743 z m 9.99023,-6.93305 c -0.52889,-6.44441 -4.14378,-8.01419 -6.7682,-2.93912 -1.91452,3.70226 -1.38476,5.5966 1.73552,6.20596 4.48578,0.87604 5.32783,0.32944 5.03268,-3.26684 z"
           style="fill:#252525" />
      </g>
      <path
         inkscape:connector-curvature="0"
         id="path4063"
         d="m 890.3422,535.98073 c 1.929,-4.19782 2.7593,-11.62638 3.2447,-29.02873 0.3038,-10.89155 -2e-4,-17.96525 -1.0724,-24.9548 -2.6253,-17.1141 -5.7729,-30.30644 -9.193,-38.5303 -2.8584,-6.87306 -4.1438,-8.9504 -9.7798,-15.80534 -9.3852,-11.41472 -12.4305,-14.45943 -18.1499,-18.14584 -5.7127,-3.68249 -9.9399,-5.22121 -23.4035,-8.52077 -5.046,-1.23664 -11.0786,-2.82915 -13.4058,-3.53891 -5.46096,-1.66554 -8.93333,-1.99882 -23.24675,-2.23123 -19.7321,-0.32038 -30.47064,1.48904 -59.0324,9.94685 -19.71,5.8366 -25.29121,7.82692 -29.74161,10.6062 -2.04299,1.27585 -6.3175,3.08012 -9.49891,4.00947 -3.18141,0.92936 -5.97661,1.98777 -6.21156,2.35202 -0.23495,0.36424 0.0546,4.40442 0.64337,8.97818 1.27998,9.94274 1.25491,18.77561 -0.0701,24.70544 -0.76635,3.42964 -2.02554,6.09108 -5.96282,12.60309 -4.89742,8.09999 -5.11174,8.3537 -11.3927,13.48607 -7.28672,5.95423 -11.66308,8.20677 -18.98274,9.77053 -10.00278,2.13699 -16.90701,2.16459 -24.39113,0.0975 -10.94835,-3.02393 -14.69606,-4.77717 -19.90153,-9.31024 -9.41084,-8.19523 -16.55264,-19.06432 -19.08214,-29.04106 -2.52846,-9.97266 -2.51612,-15.33742 0.0573,-24.91858 2.08319,-7.75587 2.6122,-8.95975 6.5887,-14.99396 4.71064,-7.1482 10.41707,-13.23419 15.07104,-16.07346 4.12979,-2.51947 15.31801,-6.63636 22.88376,-8.42048 6.01317,-1.418 6.40498,-1.62517 6.68446,-3.53439 0.49255,-3.3649 -1.07945,-4.46604 -15.74089,-11.0261 -24.6657,-11.03633 -43.03049,-16.90804 -67.64773,-21.62878 -29.24832,-5.60881 -51.65555,-6.87259 -78.97009,-4.45395 -49.74127,4.40448 -77.60739,12.28043 -120.28216,33.99598 -16.58522,8.43959 -35.90479,20.0531 -41.34082,24.85108 -1.04546,0.92274 -9.88641,7.73978 -19.64656,15.14897 -22.6027,17.1583 -26.76187,20.81624 -42.69531,37.54998 -17.61364,18.49832 -24.18788,26.21659 -34.86199,40.92853 -9.85378,13.5813 -29.25617,44.47754 -35.71025,56.86478 -11.62202,22.30596 -29.088,68.47984 -33.85045,89.48856 -4.23133,18.66582 -7.87193,52.946 -7.73269,72.81159 0.0829,11.82767 -1.32425,20.61848 -5.51208,34.43521 -4.76231,15.71201 -7.35607,30.34335 -8.24962,46.53565 -1.2782,23.16271 -0.79119,32.54588 2.56125,49.34944 1.6777,8.40916 3.86884,17.66526 4.86918,20.56911 3.27903,9.51863 18.01842,39.10372 25.98313,52.15356 7.25498,11.88707 10.98203,16.58014 23.92083,30.12049 l 12.17879,12.74507 18.90782,12.19611 c 23.89222,15.4028 29.60938,18.1705 54.23279,26.22403 11.23848,3.6756 12.88817,3.9146 24.70883,3.5791 7.58199,-0.2153 24.62418,-3.9768 29.97922,-6.617 4.6928,-2.31363 22.5742,-16.39673 31.44738,-24.76733 7.1109,-6.70814 9.36991,-9.29382 14.79409,-16.9334 11.81448,-16.63989 16.86623,-28.40423 17.68022,-41.17297 0.29535,-4.63319 0.0314,-5.9231 -1.86693,-9.12494 -2.50233,-4.22046 -9.88668,-11.29302 -15.72569,-15.06168 -6.43096,-4.15054 -14.25052,-7.00688 -25.23475,-9.21727 -13.91188,-2.79953 -30.56353,-7.39856 -38.82681,-10.72357 -8.57645,-3.45104 -26.07317,-13.8173 -31.53679,-18.68456 -9.21251,-8.20696 -18.34074,-22.35205 -20.30862,-31.47023 -1.00067,-4.64725 -1.43211,-23.40182 -0.5674,-24.74239 0.90574,-1.4042 3.32699,-1.45999 9.92233,-0.22861 13.91535,2.59806 26.54231,3.41169 37.53923,2.41887 9.43317,-0.85165 34.66032,-6.51636 41.91587,-9.41213 16.77411,-6.69475 31.70524,-15.69344 39.96198,-24.08428 3.22658,-3.27899 8.3558,-8.00761 11.39824,-10.50805 4.55497,-3.74349 11.59144,-11.17671 13.75425,-14.52974 0.26771,-0.41505 1.33985,-0.44648 2.38252,-0.0699 2.26878,0.8195 14.04152,1.87823 19.48212,1.75202 5.09467,-0.11817 24.18034,-2.20069 31.94372,-3.48551 3.36853,-0.55749 12.27477,-2.59275 19.79166,-4.52279 18.59663,-4.7749 36.67606,-12.606 51.77142,-22.42479 5.88524,-3.82805 11.69178,-7.95031 12.90341,-9.16058 3.07318,-3.06972 16.11067,-20.27861 16.39631,-21.64236 0.4935,-2.35618 -19.69712,-29.12706 -28.02765,-37.16204 -2.33431,-2.25151 -5.71934,-5.81131 -7.52228,-7.91068 -1.80293,-2.09935 -6.93033,-7.18822 -11.39422,-11.30861 -6.46877,-5.97098 -8.02357,-7.72163 -7.66004,-8.62493 0.93004,-2.31093 3.11476,-1.10272 10.83679,5.993 15.75098,14.47348 33.96011,34.59542 42.6784,47.16163 9.73983,14.03861 21.70285,35.63615 25.65352,46.3138 5.15243,13.9257 7.55394,28.71252 7.5929,46.75185 0.0234,10.82114 -0.6149,25.67636 -1.13806,26.48742 -0.1847,0.28635 -0.26834,4.50518 -0.18588,9.37516 0.18971,11.20404 2.4879,24.06905 5.20504,29.13727 1.94039,3.61936 2.47183,4.11868 8.3987,7.89103 5.73159,3.64802 7.01579,4.18085 13.64108,5.65955 7.64662,1.70665 16.07206,2.06149 21.29307,0.89676 4.53317,-1.01128 12.17456,-5.06571 16.56575,-8.78962 8.89593,-7.5441 12.38443,-14.39084 16.20882,-31.81249 5.57705,-25.40567 4.49401,-44.68665 -3.6988,-65.84882 -2.37008,-6.12193 -17.93928,-37.27385 -22.5539,-45.12737 -1.51096,-2.57146 -6.85183,-10.73772 -11.86862,-18.14721 -14.54968,-21.48904 -19.00322,-29.61258 -26.81364,-48.90978 -3.7478,-9.25967 -6.20105,-20.12227 -5.93708,-26.28844 0.31101,-7.26548 7.30103,-18.67381 23.47928,-38.32026 15.31808,-18.60188 26.47959,-29.60407 38.8312,-38.27692 6.3808,-4.48035 11.11721,-6.54632 22.07862,-9.63041 11.53641,-3.24587 20.06734,-4.14212 29.37578,-3.08617 11.06101,1.25475 18.67141,4.63029 23.67096,10.49907 3.77215,4.42797 14.20332,24.70174 19.48097,37.86276 7.73945,19.30008 12.86197,26.55196 22.69301,32.12618 9.11685,5.16929 11.31429,5.41996 25.10654,2.86394 18.06914,-3.3486 21.71914,-5.14492 45.62084,-22.45171 8.7752,-6.35394 14.8799,-11.2975 17.8198,-14.43037 4.4574,-4.74995 11.1361,-14.6387 13.7956,-20.42609 z m -18.8996,-58.1179 c -0.4057,-0.27694 -1.8932,-1.97344 -3.3057,-3.76997 -2.5861,-3.28944 -2.8037,-5.59025 -0.5269,-5.57199 1.9787,0.0159 3.0333,1.12831 4.3999,4.64101 1.2745,3.27617 0.9755,5.75411 -0.5673,4.70095 z m 0.6486,-8.91205 c -1.0707,-0.69545 -2.9392,-2.83911 -4.1519,-4.76402 -1.9527,-3.0994 -2.0701,-3.70901 -1.0257,-5.32817 0.9239,-1.43231 1.4412,-1.65948 2.388,-1.04876 0.6648,0.42879 1.5114,1.33995 1.8814,2.02481 0.37,0.68487 1.6092,2.61014 2.7537,4.2784 1.7126,2.49617 1.9058,3.30483 1.0913,4.56755 -0.8593,1.33213 -1.2464,1.36774 -2.9368,0.27019 z m -310.66516,-3.60735 c -3.44962,1.632 -7.73454,2.23591 -9.19235,1.29558 -1.90093,-1.22615 -2.61245,-6.08034 -1.20995,-8.25465 1.75513,-2.72101 6.17478,-5.54266 7.42178,-4.73831 0.88255,0.56927 0.82728,1.1739 -0.26163,2.86207 -0.75932,1.17718 -1.95316,2.45801 -2.65298,2.84628 -0.89539,0.49676 -1.23136,1.20795 -1.13385,2.40021 0.13404,1.63889 0.2088,1.67013 2.28746,0.95541 4.70555,-1.61795 5.23352,-2.17797 5.92395,-6.28346 0.35343,-2.1015 0.82807,-4.10847 1.05478,-4.45993 0.86369,-1.339 2.73673,0.97192 2.85381,3.521 0.22227,4.83851 -1.48923,8.15185 -5.09102,9.8558 z"
         style="fill:#96baec;fill-opacity:1;stroke:#96baec;stroke-width:0.71428573;stroke-opacity:1" />
      <path
         inkscape:connector-curvature="0"
         id="path4573"
         d="m 742.79426,756.82009 c 4.20686,-11.00766 5.10398,-17.95718 3.83837,-29.734 -2.86583,-26.66723 -14.41594,-48.84407 -37.67651,-72.34098 -5.33018,-5.38434 -45.67511,-40.86704 -59.13356,-52.00699 -7.67534,-6.3531 -16.12503,-15.67307 -19.63464,-21.6569 -1.88532,-3.21445 -3.68303,-6.00905 -3.99491,-6.21022 -1.06939,-0.68979 -12.01191,19.21835 -12.68225,23.07329 -1.02989,5.92269 3.36312,21.0953 10.53995,36.40288 8.05218,17.17465 6.70536,14.85816 21.18832,36.44309 13.17884,19.64131 30.72506,52.24339 36.33969,67.52165 3.84094,10.45176 5.82478,21.3358 6.39438,35.08169 0.23899,5.76738 0.99969,9.80065 2.01572,10.6876 3.5747,3.12049 9.76944,4.00206 17.97962,2.55866 10.35756,-1.82092 17.56457,-5.93709 25.56223,-14.59945 3.32457,-3.60087 6.04711,-6.60983 6.0501,-6.68659 0.003,-0.0767 1.44906,-3.91692 3.21349,-8.53373 l 0,0 z"
         style="fill:#b4c2d8;fill-opacity:1;stroke:#b4c2d8;stroke-width:1.01015258;stroke-opacity:1" />
      <path
         transform="translate(0,308.2677)"
         inkscape:connector-curvature="0"
         id="path4674"
         d="m 634.49706,180.06177 c -2.12804,-0.22232 -4.9186,-0.92308 -6.5,-1.63227 -1.52409,-0.68348 -4.23357,-1.83069 -6.02107,-2.54934 -6.08489,-2.44641 -12.01592,-7.91499 -19.08502,-17.59696 -4.24745,-5.81739 -8.48508,-15.41951 -9.24196,-20.9415 -0.19269,-1.40588 -0.006,-3.68279 0.48237,-5.89707 0.43795,-1.98382 1.26705,-6.06328 1.84246,-9.06546 1.82123,-9.5022 4.46572,-14.27863 12.23323,-22.09544 3.0354,-3.054669 6.41892,-6.038276 7.51892,-6.630236 1.1,-0.59196 2.3375,-1.281425 2.75,-1.532144 0.4125,-0.250719 4.29923,-1.837144 8.63719,-3.525388 l 7.88719,-3.069536 8.36281,0.24574 c 12.67429,0.372433 14.326,0.826905 22.61281,6.222009 7.6222,4.962409 14.37638,12.963145 17.47394,20.698945 2.72571,6.80712 3.59351,11.37254 3.87663,20.39456 0.22807,7.26781 0.13151,8.78573 -0.81107,12.75 -0.58848,2.475 -1.96046,6.30304 -3.04884,8.50676 -3.21044,6.50041 -9.65803,13.70469 -14.54378,16.25062 -0.99171,0.51678 -3.01671,1.98282 -4.5,3.25787 -1.48328,1.27505 -3.48438,2.7217 -4.44688,3.21478 -2.43151,1.24564 -7.96263,2.42212 -13.00226,2.76561 -2.33626,0.15924 -5.26024,0.36343 -6.49774,0.45377 -1.2375,0.0903 -3.92802,-0.0111 -5.97893,-0.22532 l 0,0 z m 34.74706,-72.98287 c 2.62798,-1.27219 3.86984,-3.46536 3.64677,-6.44033 -0.13716,-1.829107 -0.47043,-2.445671 -1.98087,-3.664657 -1.98589,-1.60269 -4.78973,-2.2122 -7.68117,-1.669764 -1.4484,0.271721 -2.10868,0.809016 -3.30155,2.686587 -1.22336,1.925567 -1.46506,2.786704 -1.34619,4.796314 0.1164,1.96795 0.40263,2.64117 1.45628,3.42514 2.61572,1.94627 6.26668,2.28996 9.20673,0.86671 l 0,0 z"
         style="fill:#ffffff;fill-opacity:1;stroke:#ffffff;stroke-width:0.5;stroke-opacity:1" />
      <path
         transform="translate(0,308.2677)"
         inkscape:connector-curvature="0"
         id="path4676"
         d="m 664.91334,104.5841 c -1.98136,-0.39103 -2.55671,-0.81414 -2.91165,-2.14121 -0.18763,-0.70151 -0.007,-1.4647 0.45751,-1.92881 0.5147,-0.514706 0.85686,-0.39983 1.93544,0.64978 1.27693,1.24265 1.48777,1.24206 2.14358,-0.006 0.25186,-0.47931 0.5773,-0.92473 0.7232,-0.98984 0.36899,-0.16464 0.85794,0.22317 1.25559,0.99589 0.25476,0.49504 0.31328,0.78904 0.31328,1.57389 0,0.92318 -0.018,0.98371 -0.41378,1.39206 -0.7264,0.74945 -1.49936,0.84967 -3.50317,0.45422 z"
         style="fill:#ffffff;fill-opacity:1;stroke:#ffffff;stroke-width:0.125;stroke-opacity:1" />
      <path
         transform="translate(0,308.2677)"
         inkscape:connector-curvature="0"
         id="path4678"
         d="m 678.88601,88.238021 c -1.17436,-0.747724 -2.24322,-2.069683 -2.24322,-2.774406 0,-0.404919 0.21895,-0.724286 0.64903,-0.94669 0.61652,-0.318814 2.61578,-0.201586 3.31714,0.194503 0.59244,0.334576 0.85272,0.873349 0.70608,1.46159 -0.14172,0.568518 -0.75577,1.796071 -1.06093,2.120892 -0.36563,0.389201 -0.68985,0.375957 -1.3681,-0.05589 z"
         style="fill:#ffffff;fill-opacity:1;stroke:#ffffff;stroke-width:0.125;stroke-opacity:1" />
      <path
         transform="translate(0,308.2677)"
         inkscape:connector-curvature="0"
         id="path4680"
         d="m 687.37313,107.62545 -0.58215,-0.0464 -0.7203,-1.21237 c -2.39769,-4.03568 -7.29255,-10.206377 -9.90013,-12.480569 -2.79804,-2.440303 -10.92613,-7.768525 -15.02523,-9.849523 -3.86584,-1.962573 -6.08196,-2.702677 -10.895,-3.638531 l -1.07996,-0.209989 -0.094,-1.204382 c -0.3892,-4.988369 0.7805,-11.273378 2.8967,-15.564525 0.91821,-1.861918 1.66391,-2.703873 4.17345,-4.712163 2.63296,-2.107055 8.01013,-5.680005 10.21255,-6.785896 3.81054,-1.91336 8.41358,-3.188798 14.0962,-3.905854 2.42893,-0.306493 7.41438,-0.309063 9.47884,-0.0049 5.0643,0.746169 12.779,3.632112 16.67681,6.238528 0.72865,0.48724 1.76646,1.327525 2.30623,1.867298 2.44328,2.443281 5.80324,7.81263 7.45942,11.920434 0.97266,2.412501 1.10742,3.501116 0.89656,7.242682 -0.18857,3.345913 -0.3594,4.458107 -1.2384,8.0625 -1.39394,5.71598 -2.00568,7.699992 -3.00193,9.735904 -0.5553,1.134786 -0.78095,1.436594 -2.76482,3.697873 -2.74961,3.134107 -5.58422,5.705213 -7.38431,6.697873 -2.45149,1.35187 -7.81051,3.18778 -11.48569,3.93481 -1.44364,0.29343 -2.41094,0.34562 -4.02487,0.21714 l 0,0 z m -7.50642,-16.038445 c 1.49846,-0.345647 2.67524,-1.330573 3.43293,-2.873237 0.84872,-1.727985 1.2761,-4.206121 0.97496,-5.653272 -0.13171,-0.632991 -0.21198,-0.761654 -0.67195,-1.077133 -1.93584,-1.327732 -5.84215,-2.528603 -7.04905,-2.167007 -1.11058,0.332737 -2.3251,1.661564 -3.16511,3.462997 -0.9219,1.97704 -0.96011,3.166523 -0.15436,4.804139 0.57368,1.165955 1.88308,2.527175 2.93665,3.052869 1.03074,0.514299 2.59377,0.704879 3.69593,0.450644 l 0,0 z"
         style="fill:#ffffff;fill-opacity:1;stroke:#ffffff;stroke-width:0.125;stroke-opacity:1" />
    </g>
  </g>
</svg>
